<html>
<head>
<meta charset="UTF-8">
<meta name="viewport" content="width=device-width, initial-scale=1.0"/>

<style>
.comment
{
    padding-left: 20px;
    margin-top: 4px;
    margin-right: 4px;
    margin-bottom: 4px;
    border: 2px #000 solid;
}
.submission
{
    border: 4px #00f solid;
    padding-left: 20px;
}
.hidden
{
    display: none;
}
</style>
</head>
<body><div class="submission" id="t3_6ak9bv">
    <p class="userinfo">
        <a href="https://www.reddit.com/u/TheMrMcGibblets">TheMrMcGibblets</a>
        <span class="score"> | 40 points</span>
        <span class="timestamp"> | May 11 2017 13:55:32</span>
    </p>
    <strong>[MOVIE] The Kings Speech (2010) 1080p Bluray x265 HEVC 10bit AAC 5.1 [3.11GB]</strong>
    <p><p>Add mega</p>
<p>.nz/#!NPx1TCDa</p>
<p>!UpQkhegiJCcNa5M_PEOxykgNeP2_boqhiRwrWWSZFV0</p>
<pre><code>General
Format : Matroska
Format version : Version 4 / Version 2
File size : 3.11 GiB
Duration : 1 h 58 min
Overall bit rate : 3 754 kb/s
Encoded date : UTC 2017-04-07 20:49:41
Writing application : mkvmerge v9.6.0 (\'Slave To Your Mind\') 64bit
Writing library : libebml v1.3.4 + libmatroska v1.4.5

Video
ID : 1
Format : HEVC
Format/Info : High Efficiency Video Coding
Format profile : Main 10@L4@Main
Codec ID : V_MPEGH/ISO/HEVC
Duration : 1 h 58 min
Bit rate : 3 336 kb/s
Width : 1 920 pixels
Height : 1 080 pixels
Display aspect ratio : 16:9
Frame rate mode : Constant
Frame rate : 23.976 (24000/1001) FPS
Color space : YUV
Chroma subsampling : 4:2:0
Bit depth : 10 bits
Bits/(Pixel*Frame) : 0.067
Stream size : 2.76 GiB (89%)
Writing library : x265 2.3+22-db5e22b856f5:[Windows][GCC 6.3.0][64 bit] 10bit
Encoding settings : cpuid=1173503 / frame-threads=3 / numa-pools=8 / wpp / no-pmode / no-pme / no-psnr / no-ssim / log-level=2 / input-csp=1 / input-res=1920x1080 / interlace=0 / total-frames=170424 / level-idc=0 / high-tier=1 / uhd-bd=0 / ref=3 / no-allow-non-conformance / no-repeat-headers / annexb / no-aud / no-hrd / info / hash=0 / no-temporal-layers / open-gop / min-keyint=23 / keyint=250 / bframes=4 / b-adapt=2 / b-pyramid / bframe-bias=0 / rc-lookahead=20 / lookahead-slices=6 / scenecut=40 / no-intra-refresh / ctu=64 / min-cu-size=8 / no-rect / no-amp / max-tu-size=32 / tu-inter-depth=1 / tu-intra-depth=1 / limit-tu=0 / rdoq-level=0 / dynamic-rd=0.00 / signhide / no-tskip / nr-intra=0 / nr-inter=0 / no-constrained-intra / strong-intra-smoothing / max-merge=2 / limit-refs=3 / no-limit-modes / me=1 / subme=2 / merange=57 / temporal-mvp / weightp / no-weightb / no-analyze-src-pics / deblock=0:0 / sao / no-sao-non-deblock / rd=3 / no-early-skip / rskip / no-fast-intra / no-tskip-fast / no-cu-lossless / no-b-intra / rdpenalty=0 / psy-rd=2.00 / psy-rdoq=0.00 / no-rd-refine / analysis-mode=0 / no-lossless / cbqpoffs=0 / crqpoffs=0 / rc=abr / bitrate=3335 / qcomp=0.60 / qpstep=4 / stats-write=0 / stats-read=2 / cplxblur=20.0 / qblur=0.5 / ipratio=1.40 / pbratio=1.30 / aq-mode=3 / aq-strength=1.00 / cutree / zone-count=0 / no-strict-cbr / qg-size=32 / no-rc-grain / qpmax=69 / qpmin=0 / sar=0 / overscan=0 / videoformat=5 / range=0 / colorprim=2 / transfer=2 / colormatrix=2 / chromaloc=0 / display-window=0 / max-cll=0,0 / min-luma=0 / max-luma=1023 / log2-max-poc-lsb=8 / vui-timing-info / vui-hrd-info / slices=1 / opt-qp-pps / opt-ref-list-length-pps / no-multi-pass-opt-rps / scenecut-bias=0.05 / no-opt-cu-delta-qp / no-aq-motion / no-hdr / no-hdr-opt / refine-level=5
Default : Yes
Forced : No

Audio #1
ID : 2
Format : AAC
Format/Info : Advanced Audio Codec
Format profile : LC
Codec ID : A_AAC
Duration : 1 h 58 min
Bit rate : 330 kb/s
Channel(s) : 6 channels
Channel positions : Front: L C R, Side: L R, LFE
Sampling rate : 48.0 kHz
Frame rate : 46.875 FPS (1024 spf)
Compression mode : Lossy
Delay relative to video : 20 ms
Stream size : 280 MiB (9%)
Language : English
Default : Yes
Forced : No

Audio #2
ID : 3
Format : AAC
Format/Info : Advanced Audio Codec
Format profile : HE-AAC / LC
Codec ID : A_AAC
Duration : 1 h 58 min
Bit rate : 66.2 kb/s
Channel(s) : 2 channels
Channel positions : Front: L R
Sampling rate : 48.0 kHz / 24.0 kHz
Frame rate : 23.438 FPS (1024 spf)
Compression mode : Lossy
Delay relative to video : 40 ms
Stream size : 55.8 MiB (2%)
Title : Commentary
Language : English
Default : No
Forced : No

Text #1
ID : 4
Format : VobSub
Muxing mode : zlib
Codec ID : S_VOBSUB
Codec ID/Info : Picture based subtitle format used on DVDs
Duration : 1 h 51 min
Bit rate : 5 728 b/s
Count of elements : 1367
Stream size : 4.57 MiB (0%)
Language : English
Default : No
Forced : No

Text #2
ID : 5
Format : VobSub
Muxing mode : zlib
Codec ID : S_VOBSUB
Codec ID/Info : Picture based subtitle format used on DVDs
Duration : 1 h 52 min
Bit rate : 5 722 b/s
Count of elements : 1374
Stream size : 4.59 MiB (0%)
Language : Portuguese
Default : No
Forced : No

Text #3
ID : 6
Format : VobSub
Muxing mode : zlib
Codec ID : S_VOBSUB
Codec ID/Info : Picture based subtitle format used on DVDs
Duration : 1 h 56 min
Bit rate : 8 548 b/s
Count of elements : 1929
Stream size : 7.12 MiB (0%)
Title : Commentary
Language : Portuguese
Default : No
Forced : No
</code></pre></p>
    <p class="toolbar">
        <a href="https://www.reddit.com/r/megalinks/comments/6ak9bv">permalink</a>
    </p>
</div>
<div class="comment" id="t1_dhf54s8">
    <p class="userinfo">
        <a
        class="toggle_hide_button"
        href="javascript:void(0)"
        onclick="toggle_collapse(this.parentElement.parentElement)">[-]
        </a>
        <a href="https://www.reddit.com/u/SubZorro">SubZorro</a>
        <span class="score"> | 1 points</span>
        <span class="timestamp"> | May 11 2017 14:00:05</span>
    </p>
    <div class="collapsible">
        <h5>Subtitles for this movie:</h5>
<hr>
<blockquote>
<ul>
<li>
<p><strong>The.Kings.Speech.2010.DVDSCR.XviD-iLG</strong> - <code>2 CD</code> - <a href="http://dl.opensubtitles.org/en/download/vrf-6e467252/sub/4070252">Download Subtitle</a></p>
</li>
<li>
<p><strong>The.Kings.Speech.2010.BRRip.XviD.AC3-TiMPE</strong> - <code>1 CD</code> - <a href="http://dl.opensubtitles.org/en/download/vrf-a869090e/sub/4144207">Download Subtitle</a></p>
</li>
<li>
<p><strong>The.Kings.Speech.2010.1080p.BluRay.X264-AMIABLE</strong> - <code>1 CD</code> - <a href="http://dl.opensubtitles.org/en/download/vrf-366b3f32/sub/4143884">Download Subtitle</a></p>
</li>
<li>
<p><strong>The.Kings.Speech.2010.720p.BluRay.X264-AMIABLE</strong> - <code>1 CD</code> - <a href="http://dl.opensubtitles.org/en/download/vrf-c2d046cf/sub/4149180">Download Subtitle</a></p>
</li>
<li>
<p><strong>The.Kings.Speech.2010.720p.BRRip.XviD.AC3-ViSiON</strong> - <code>1 CD</code> - <a href="http://dl.opensubtitles.org/en/download/vrf-fafbc329/sub/4153519">Download Subtitle</a></p>
</li>
<li>
<p><strong>The.Kings.Speech.2010.DVDSCR.XviD.AC3-TiMPE</strong> - <code>1 CD</code> - <a href="http://dl.opensubtitles.org/en/download/vrf-8efc6f64/sub/4099424">Download Subtitle</a></p>
</li>
<li>
<p><strong>The Kings.Speech.2010.DVDSCR.XviD.AC3-NYDIC</strong> - <code>1 CD</code> - <a href="http://dl.opensubtitles.org/en/download/vrf-da8c8bf4/sub/4065672">Download Subtitle</a></p>
</li>
</ul>
</blockquote>
<hr>
<p>^This ^list ^of ^subtitles ^are ^taken ^from <a href="http://www.opensubtitles.org">^opensubtitles.org</a> ^| ^For ^feedback ^or ^suggestions ^contact <a href="http://www.reddit.com/message/compose/?to=indigo6alpha">^/u/indigo6alpha</a></p>
        <p class="toolbar">
            <a href="https://www.reddit.com/r/megalinks/comments/6ak9bv/_/dhf54s8">permalink</a>
        </p>
        
    </div>
</div>
</body>

<script>
function toggle_collapse(comment_div)
{
    var button = comment_div.getElementsByClassName("toggle_hide_button")[0];
    var collapsible = comment_div.getElementsByClassName("collapsible")[0];
    if (collapsible.classList.contains("hidden"))
    {
        collapsible.classList.remove("hidden");
        button.innerText = "[-]";
    }
    else
    {
        collapsible.classList.add("hidden");
        button.innerText = "[+]";
    }
}
</script>
</html>
